<mxfile host="app.diagrams.net" modified="2024-01-28T14:50:25.327Z" agent="Mozilla/5.0 (X11; Linux x86_64) AppleWebKit/537.36 (KHTML, like Gecko) Chrome/121.0.0.0 Safari/537.36" etag="auO71wFe6fGv3ftBCg7a" version="23.0.2" type="github">
  <diagram name="Page-1" id="FYWUt24ZpTdFW-gtobVG">
    <mxGraphModel dx="844" dy="488" grid="1" gridSize="10" guides="1" tooltips="1" connect="1" arrows="1" fold="1" page="1" pageScale="1" pageWidth="850" pageHeight="1100" math="0" shadow="0">
      <root>
        <mxCell id="0" />
        <mxCell id="1" parent="0" />
        <mxCell id="IX6t6DD36pY5l--hHVE1-1" style="edgeStyle=orthogonalEdgeStyle;rounded=0;orthogonalLoop=1;jettySize=auto;html=1;" parent="1" source="IX6t6DD36pY5l--hHVE1-2" target="IX6t6DD36pY5l--hHVE1-4" edge="1">
          <mxGeometry relative="1" as="geometry" />
        </mxCell>
        <mxCell id="IX6t6DD36pY5l--hHVE1-2" value="Start" style="rounded=1;whiteSpace=wrap;html=1;arcSize=50;" parent="1" vertex="1">
          <mxGeometry x="365" y="162" width="120" height="60" as="geometry" />
        </mxCell>
        <mxCell id="IX6t6DD36pY5l--hHVE1-3" value="" style="edgeStyle=orthogonalEdgeStyle;rounded=0;orthogonalLoop=1;jettySize=auto;html=1;" parent="1" source="IX6t6DD36pY5l--hHVE1-4" target="IX6t6DD36pY5l--hHVE1-6" edge="1">
          <mxGeometry relative="1" as="geometry" />
        </mxCell>
        <mxCell id="IX6t6DD36pY5l--hHVE1-4" value="Initialize Board/ &lt;br&gt;OLED/ Clock" style="rounded=0;whiteSpace=wrap;html=1;" parent="1" vertex="1">
          <mxGeometry x="365" y="272" width="120" height="60" as="geometry" />
        </mxCell>
        <mxCell id="IX6t6DD36pY5l--hHVE1-5" value="" style="edgeStyle=orthogonalEdgeStyle;rounded=0;orthogonalLoop=1;jettySize=auto;html=1;" parent="1" source="IX6t6DD36pY5l--hHVE1-6" target="IX6t6DD36pY5l--hHVE1-8" edge="1">
          <mxGeometry relative="1" as="geometry" />
        </mxCell>
        <mxCell id="IX6t6DD36pY5l--hHVE1-6" value="Define Parameters for LoRa along with&lt;br&gt;Max and Min Spreading Factors&amp;nbsp;&amp;nbsp;" style="whiteSpace=wrap;html=1;rounded=0;" parent="1" vertex="1">
          <mxGeometry x="365" y="372" width="120" height="60" as="geometry" />
        </mxCell>
        <mxCell id="IX6t6DD36pY5l--hHVE1-7" value="" style="edgeStyle=orthogonalEdgeStyle;rounded=0;orthogonalLoop=1;jettySize=auto;html=1;" parent="1" source="IX6t6DD36pY5l--hHVE1-8" target="IX6t6DD36pY5l--hHVE1-13" edge="1">
          <mxGeometry relative="1" as="geometry" />
        </mxCell>
        <mxCell id="IX6t6DD36pY5l--hHVE1-8" value="Try To Initialize Radio with LoRa&amp;nbsp;" style="whiteSpace=wrap;html=1;rounded=0;" parent="1" vertex="1">
          <mxGeometry x="365" y="480" width="120" height="60" as="geometry" />
        </mxCell>
        <mxCell id="IX6t6DD36pY5l--hHVE1-9" value="" style="edgeStyle=orthogonalEdgeStyle;rounded=0;orthogonalLoop=1;jettySize=auto;html=1;" parent="1" source="IX6t6DD36pY5l--hHVE1-13" target="IX6t6DD36pY5l--hHVE1-15" edge="1">
          <mxGeometry relative="1" as="geometry" />
        </mxCell>
        <mxCell id="IX6t6DD36pY5l--hHVE1-10" value="Yes" style="edgeLabel;html=1;align=center;verticalAlign=middle;resizable=0;points=[];fontStyle=1;fontSize=14;" parent="IX6t6DD36pY5l--hHVE1-9" vertex="1" connectable="0">
          <mxGeometry x="-0.4667" y="-1" relative="1" as="geometry">
            <mxPoint as="offset" />
          </mxGeometry>
        </mxCell>
        <mxCell id="IX6t6DD36pY5l--hHVE1-11" value="" style="edgeStyle=orthogonalEdgeStyle;rounded=0;orthogonalLoop=1;jettySize=auto;html=1;entryX=0;entryY=0.5;entryDx=0;entryDy=0;" parent="1" source="IX6t6DD36pY5l--hHVE1-13" target="IX6t6DD36pY5l--hHVE1-16" edge="1">
          <mxGeometry relative="1" as="geometry">
            <mxPoint x="525" y="630" as="targetPoint" />
          </mxGeometry>
        </mxCell>
        <mxCell id="0H7-YZ-VMUyI1cPCvzWG-16" value="No" style="edgeLabel;html=1;align=center;verticalAlign=middle;resizable=0;points=[];fontStyle=1;fontSize=14;" vertex="1" connectable="0" parent="IX6t6DD36pY5l--hHVE1-11">
          <mxGeometry x="0.1273" y="2" relative="1" as="geometry">
            <mxPoint as="offset" />
          </mxGeometry>
        </mxCell>
        <mxCell id="IX6t6DD36pY5l--hHVE1-13" value="Initialization&lt;br&gt;Success?" style="rhombus;whiteSpace=wrap;html=1;rounded=0;" parent="1" vertex="1">
          <mxGeometry x="385" y="590" width="80" height="80" as="geometry" />
        </mxCell>
        <mxCell id="IX6t6DD36pY5l--hHVE1-63" style="edgeStyle=orthogonalEdgeStyle;rounded=0;orthogonalLoop=1;jettySize=auto;html=1;" parent="1" source="IX6t6DD36pY5l--hHVE1-15" target="IX6t6DD36pY5l--hHVE1-62" edge="1">
          <mxGeometry relative="1" as="geometry" />
        </mxCell>
        <mxCell id="IX6t6DD36pY5l--hHVE1-15" value="Attach DIO 0 &lt;br&gt;Interrupt" style="whiteSpace=wrap;html=1;rounded=0;" parent="1" vertex="1">
          <mxGeometry x="365" y="760" width="120" height="60" as="geometry" />
        </mxCell>
        <mxCell id="IX6t6DD36pY5l--hHVE1-16" value="END" style="rounded=1;whiteSpace=wrap;html=1;" parent="1" vertex="1">
          <mxGeometry x="520" y="600" width="120" height="60" as="geometry" />
        </mxCell>
        <mxCell id="IX6t6DD36pY5l--hHVE1-58" value="" style="edgeStyle=orthogonalEdgeStyle;rounded=0;orthogonalLoop=1;jettySize=auto;html=1;" parent="1" source="IX6t6DD36pY5l--hHVE1-56" target="IX6t6DD36pY5l--hHVE1-57" edge="1">
          <mxGeometry relative="1" as="geometry" />
        </mxCell>
        <mxCell id="IX6t6DD36pY5l--hHVE1-59" value="Yes" style="edgeLabel;html=1;align=center;verticalAlign=middle;resizable=0;points=[];fontSize=14;fontStyle=1" parent="IX6t6DD36pY5l--hHVE1-58" vertex="1" connectable="0">
          <mxGeometry x="-0.1855" y="2" relative="1" as="geometry">
            <mxPoint x="-1" as="offset" />
          </mxGeometry>
        </mxCell>
        <mxCell id="IX6t6DD36pY5l--hHVE1-65" style="edgeStyle=orthogonalEdgeStyle;rounded=0;orthogonalLoop=1;jettySize=auto;html=1;entryX=0.5;entryY=1;entryDx=0;entryDy=0;" parent="1" source="IX6t6DD36pY5l--hHVE1-56" target="IX6t6DD36pY5l--hHVE1-62" edge="1">
          <mxGeometry relative="1" as="geometry" />
        </mxCell>
        <mxCell id="IX6t6DD36pY5l--hHVE1-66" value="No" style="edgeLabel;html=1;align=center;verticalAlign=middle;resizable=0;points=[];fontSize=14;fontStyle=1" parent="IX6t6DD36pY5l--hHVE1-65" vertex="1" connectable="0">
          <mxGeometry x="-0.3059" y="1" relative="1" as="geometry">
            <mxPoint as="offset" />
          </mxGeometry>
        </mxCell>
        <mxCell id="IX6t6DD36pY5l--hHVE1-56" value="Action flag &lt;br&gt;Triggered?" style="rhombus;whiteSpace=wrap;html=1;" parent="1" vertex="1">
          <mxGeometry x="350" y="935" width="125" height="130" as="geometry" />
        </mxCell>
        <mxCell id="0H7-YZ-VMUyI1cPCvzWG-13" value="" style="edgeStyle=orthogonalEdgeStyle;rounded=0;orthogonalLoop=1;jettySize=auto;html=1;" edge="1" parent="1" source="IX6t6DD36pY5l--hHVE1-57" target="0H7-YZ-VMUyI1cPCvzWG-12">
          <mxGeometry relative="1" as="geometry" />
        </mxCell>
        <mxCell id="IX6t6DD36pY5l--hHVE1-57" value="Get the Payload String" style="whiteSpace=wrap;html=1;" parent="1" vertex="1">
          <mxGeometry x="352.5" y="1140" width="120" height="60" as="geometry" />
        </mxCell>
        <mxCell id="IX6t6DD36pY5l--hHVE1-64" style="edgeStyle=orthogonalEdgeStyle;rounded=0;orthogonalLoop=1;jettySize=auto;html=1;entryX=0.5;entryY=0;entryDx=0;entryDy=0;" parent="1" source="IX6t6DD36pY5l--hHVE1-62" target="IX6t6DD36pY5l--hHVE1-56" edge="1">
          <mxGeometry relative="1" as="geometry" />
        </mxCell>
        <mxCell id="IX6t6DD36pY5l--hHVE1-62" value="Start listen mode&lt;br&gt;&amp;amp;&lt;br&gt;Sync the clock" style="rounded=0;whiteSpace=wrap;html=1;" parent="1" vertex="1">
          <mxGeometry x="520" y="875" width="120" height="60" as="geometry" />
        </mxCell>
        <mxCell id="IX6t6DD36pY5l--hHVE1-72" value="" style="edgeStyle=orthogonalEdgeStyle;rounded=0;orthogonalLoop=1;jettySize=auto;html=1;" parent="1" source="IX6t6DD36pY5l--hHVE1-67" target="IX6t6DD36pY5l--hHVE1-71" edge="1">
          <mxGeometry relative="1" as="geometry" />
        </mxCell>
        <mxCell id="IX6t6DD36pY5l--hHVE1-74" value="Yes" style="edgeLabel;html=1;align=center;verticalAlign=middle;resizable=0;points=[];fontStyle=1;fontSize=14;" parent="IX6t6DD36pY5l--hHVE1-72" vertex="1" connectable="0">
          <mxGeometry x="-0.3" y="1" relative="1" as="geometry">
            <mxPoint as="offset" />
          </mxGeometry>
        </mxCell>
        <mxCell id="IX6t6DD36pY5l--hHVE1-76" value="" style="edgeStyle=orthogonalEdgeStyle;rounded=0;orthogonalLoop=1;jettySize=auto;html=1;" parent="1" source="IX6t6DD36pY5l--hHVE1-67" target="IX6t6DD36pY5l--hHVE1-75" edge="1">
          <mxGeometry relative="1" as="geometry">
            <Array as="points">
              <mxPoint x="630" y="1320" />
              <mxPoint x="630" y="1320" />
            </Array>
          </mxGeometry>
        </mxCell>
        <mxCell id="IX6t6DD36pY5l--hHVE1-78" value="No" style="edgeLabel;html=1;align=center;verticalAlign=middle;resizable=0;points=[];fontStyle=1;fontSize=14;" parent="IX6t6DD36pY5l--hHVE1-76" vertex="1" connectable="0">
          <mxGeometry x="-0.6492" y="3" relative="1" as="geometry">
            <mxPoint as="offset" />
          </mxGeometry>
        </mxCell>
        <mxCell id="IX6t6DD36pY5l--hHVE1-67" value="If the payload&amp;nbsp;&lt;br&gt;Is &quot;Tx Done&quot;" style="rhombus;whiteSpace=wrap;html=1;" parent="1" vertex="1">
          <mxGeometry x="560" y="1100" width="140" height="140" as="geometry" />
        </mxCell>
        <mxCell id="IX6t6DD36pY5l--hHVE1-83" value="" style="edgeStyle=orthogonalEdgeStyle;rounded=0;orthogonalLoop=1;jettySize=auto;html=1;" parent="1" source="IX6t6DD36pY5l--hHVE1-71" target="IX6t6DD36pY5l--hHVE1-82" edge="1">
          <mxGeometry relative="1" as="geometry" />
        </mxCell>
        <mxCell id="IX6t6DD36pY5l--hHVE1-71" value="Remove the Interrupt&amp;nbsp;&amp;nbsp;" style="whiteSpace=wrap;html=1;" parent="1" vertex="1">
          <mxGeometry x="860" y="1140" width="120" height="60" as="geometry" />
        </mxCell>
        <mxCell id="0H7-YZ-VMUyI1cPCvzWG-20" style="edgeStyle=orthogonalEdgeStyle;rounded=0;orthogonalLoop=1;jettySize=auto;html=1;exitX=0;exitY=0.5;exitDx=0;exitDy=0;entryX=0.25;entryY=0;entryDx=0;entryDy=0;" edge="1" parent="1" source="IX6t6DD36pY5l--hHVE1-75" target="IX6t6DD36pY5l--hHVE1-62">
          <mxGeometry relative="1" as="geometry">
            <Array as="points">
              <mxPoint x="280" y="1470" />
              <mxPoint x="280" y="840" />
              <mxPoint x="550" y="840" />
            </Array>
          </mxGeometry>
        </mxCell>
        <mxCell id="IX6t6DD36pY5l--hHVE1-75" value="Update the state data&amp;nbsp;" style="whiteSpace=wrap;html=1;" parent="1" vertex="1">
          <mxGeometry x="560" y="1440" width="120" height="60" as="geometry" />
        </mxCell>
        <mxCell id="IX6t6DD36pY5l--hHVE1-81" style="edgeStyle=orthogonalEdgeStyle;rounded=0;orthogonalLoop=1;jettySize=auto;html=1;entryX=1;entryY=0.5;entryDx=0;entryDy=0;" parent="1" source="IX6t6DD36pY5l--hHVE1-79" target="IX6t6DD36pY5l--hHVE1-62" edge="1">
          <mxGeometry relative="1" as="geometry">
            <Array as="points">
              <mxPoint x="840" y="905" />
            </Array>
          </mxGeometry>
        </mxCell>
        <mxCell id="IX6t6DD36pY5l--hHVE1-79" value="Reset the state data" style="whiteSpace=wrap;html=1;" parent="1" vertex="1">
          <mxGeometry x="800" y="875" width="120" height="60" as="geometry" />
        </mxCell>
        <mxCell id="IX6t6DD36pY5l--hHVE1-86" value="" style="edgeStyle=orthogonalEdgeStyle;rounded=0;orthogonalLoop=1;jettySize=auto;html=1;" parent="1" source="IX6t6DD36pY5l--hHVE1-82" target="IX6t6DD36pY5l--hHVE1-85" edge="1">
          <mxGeometry relative="1" as="geometry" />
        </mxCell>
        <mxCell id="IX6t6DD36pY5l--hHVE1-82" value="Calculate and send the data to our Google sheet" style="whiteSpace=wrap;html=1;" parent="1" vertex="1">
          <mxGeometry x="1050" y="1140" width="120" height="60" as="geometry" />
        </mxCell>
        <mxCell id="IX6t6DD36pY5l--hHVE1-87" style="edgeStyle=orthogonalEdgeStyle;rounded=0;orthogonalLoop=1;jettySize=auto;html=1;entryX=1;entryY=0.5;entryDx=0;entryDy=0;" parent="1" source="IX6t6DD36pY5l--hHVE1-85" target="IX6t6DD36pY5l--hHVE1-79" edge="1">
          <mxGeometry relative="1" as="geometry" />
        </mxCell>
        <mxCell id="IX6t6DD36pY5l--hHVE1-85" value="Re attach the Interrupt" style="whiteSpace=wrap;html=1;" parent="1" vertex="1">
          <mxGeometry x="1050" y="875" width="120" height="60" as="geometry" />
        </mxCell>
        <mxCell id="0H7-YZ-VMUyI1cPCvzWG-1" style="edgeStyle=orthogonalEdgeStyle;rounded=0;orthogonalLoop=1;jettySize=auto;html=1;entryX=0;entryY=0.5;entryDx=0;entryDy=0;" edge="1" parent="1" source="0H7-YZ-VMUyI1cPCvzWG-3" target="0H7-YZ-VMUyI1cPCvzWG-4">
          <mxGeometry relative="1" as="geometry" />
        </mxCell>
        <mxCell id="0H7-YZ-VMUyI1cPCvzWG-2" value="Yes" style="edgeLabel;html=1;align=center;verticalAlign=middle;resizable=0;points=[];fontStyle=1;fontSize=14;" vertex="1" connectable="0" parent="0H7-YZ-VMUyI1cPCvzWG-1">
          <mxGeometry x="-0.4189" relative="1" as="geometry">
            <mxPoint as="offset" />
          </mxGeometry>
        </mxCell>
        <mxCell id="0H7-YZ-VMUyI1cPCvzWG-3" value="Interrupt Triggered" style="rhombus;whiteSpace=wrap;html=1;rounded=0;" vertex="1" parent="1">
          <mxGeometry x="860" y="590" width="95" height="90" as="geometry" />
        </mxCell>
        <mxCell id="0H7-YZ-VMUyI1cPCvzWG-4" value="Update the action Flag" style="rounded=0;whiteSpace=wrap;html=1;" vertex="1" parent="1">
          <mxGeometry x="1100" y="605" width="120" height="60" as="geometry" />
        </mxCell>
        <mxCell id="0H7-YZ-VMUyI1cPCvzWG-5" value="This gets triggered on Reception starts" style="text;html=1;strokeColor=#6c8ebf;fillColor=#dae8fc;align=center;verticalAlign=middle;whiteSpace=wrap;rounded=0;" vertex="1" parent="1">
          <mxGeometry x="837.5" y="550" width="140" height="30" as="geometry" />
        </mxCell>
        <mxCell id="0H7-YZ-VMUyI1cPCvzWG-6" style="edgeStyle=orthogonalEdgeStyle;rounded=0;orthogonalLoop=1;jettySize=auto;html=1;entryX=0;entryY=0.5;entryDx=0;entryDy=0;" edge="1" parent="1" source="0H7-YZ-VMUyI1cPCvzWG-7" target="0H7-YZ-VMUyI1cPCvzWG-3">
          <mxGeometry relative="1" as="geometry" />
        </mxCell>
        <mxCell id="0H7-YZ-VMUyI1cPCvzWG-7" value="" style="verticalLabelPosition=top;shadow=0;dashed=0;align=center;html=1;verticalAlign=bottom;strokeWidth=1;shape=mxgraph.mockup.misc.pin;fillColor2=#ffff00;fillColor3=#888800;strokeColor=#999900;" vertex="1" parent="1">
          <mxGeometry x="780" y="605" width="10" height="25" as="geometry" />
        </mxCell>
        <mxCell id="0H7-YZ-VMUyI1cPCvzWG-8" value="Rising Edge" style="shape=image;verticalLabelPosition=bottom;labelBackgroundColor=default;verticalAlign=top;aspect=fixed;imageAspect=0;image=https://www.mathworks.com/help/simscape/lang/edge_op1.png;" vertex="1" parent="1">
          <mxGeometry x="780" y="700" width="188.27" height="100.83" as="geometry" />
        </mxCell>
        <mxCell id="0H7-YZ-VMUyI1cPCvzWG-9" value="DIO 0" style="text;html=1;align=center;verticalAlign=middle;resizable=0;points=[];autosize=1;strokeColor=none;fillColor=none;" vertex="1" parent="1">
          <mxGeometry x="755" y="638" width="50" height="30" as="geometry" />
        </mxCell>
        <mxCell id="0H7-YZ-VMUyI1cPCvzWG-14" style="edgeStyle=orthogonalEdgeStyle;rounded=0;orthogonalLoop=1;jettySize=auto;html=1;entryX=0;entryY=0.5;entryDx=0;entryDy=0;" edge="1" parent="1" source="0H7-YZ-VMUyI1cPCvzWG-12" target="IX6t6DD36pY5l--hHVE1-67">
          <mxGeometry relative="1" as="geometry" />
        </mxCell>
        <mxCell id="0H7-YZ-VMUyI1cPCvzWG-15" value="Yes" style="edgeLabel;html=1;align=center;verticalAlign=middle;resizable=0;points=[];fontStyle=1;fontSize=14;" vertex="1" connectable="0" parent="0H7-YZ-VMUyI1cPCvzWG-14">
          <mxGeometry x="0.3215" y="-2" relative="1" as="geometry">
            <mxPoint as="offset" />
          </mxGeometry>
        </mxCell>
        <mxCell id="0H7-YZ-VMUyI1cPCvzWG-18" style="edgeStyle=orthogonalEdgeStyle;rounded=0;orthogonalLoop=1;jettySize=auto;html=1;" edge="1" parent="1" source="0H7-YZ-VMUyI1cPCvzWG-12" target="0H7-YZ-VMUyI1cPCvzWG-17">
          <mxGeometry relative="1" as="geometry" />
        </mxCell>
        <mxCell id="0H7-YZ-VMUyI1cPCvzWG-21" value="No" style="edgeLabel;html=1;align=center;verticalAlign=middle;resizable=0;points=[];fontStyle=1" vertex="1" connectable="0" parent="0H7-YZ-VMUyI1cPCvzWG-18">
          <mxGeometry x="0.0295" relative="1" as="geometry">
            <mxPoint y="-6" as="offset" />
          </mxGeometry>
        </mxCell>
        <mxCell id="0H7-YZ-VMUyI1cPCvzWG-12" value="Is reception Successful ?" style="rhombus;whiteSpace=wrap;html=1;" vertex="1" parent="1">
          <mxGeometry x="363.75" y="1250" width="97.5" height="110" as="geometry" />
        </mxCell>
        <mxCell id="0H7-YZ-VMUyI1cPCvzWG-19" style="edgeStyle=orthogonalEdgeStyle;rounded=0;orthogonalLoop=1;jettySize=auto;html=1;exitX=0;exitY=0.5;exitDx=0;exitDy=0;entryX=0.125;entryY=0.001;entryDx=0;entryDy=0;entryPerimeter=0;" edge="1" parent="1" source="0H7-YZ-VMUyI1cPCvzWG-17" target="IX6t6DD36pY5l--hHVE1-62">
          <mxGeometry relative="1" as="geometry">
            <mxPoint x="200" y="870" as="targetPoint" />
            <Array as="points">
              <mxPoint x="320" y="1420" />
              <mxPoint x="320" y="860" />
              <mxPoint x="535" y="860" />
            </Array>
          </mxGeometry>
        </mxCell>
        <mxCell id="0H7-YZ-VMUyI1cPCvzWG-17" value="Log the error" style="rounded=0;whiteSpace=wrap;html=1;" vertex="1" parent="1">
          <mxGeometry x="353" y="1390" width="120" height="60" as="geometry" />
        </mxCell>
      </root>
    </mxGraphModel>
  </diagram>
</mxfile>
